<svg xmlns="http://www.w3.org/2000/svg" viewBox="0 0 90 50">
  <ellipse cx="45" cy="9" rx="12" ry="3.6" fill="none" stroke="#ffd23f" stroke-width="3.4"/>
  <ellipse cx="45" cy="9" rx="12" ry="3.6" fill="none" stroke="#fff0b3" stroke-width="1.2"/>
  <g stroke="#cfd8e0" stroke-width="1.4">
    <path d="M41 48 Q6 42 9 16 Q18 20 24 25 Q14 22 12 27 Q22 25 28 30 Q18 29 17 34 Q28 31 34 35 Q26 35 26 40 Q35 37 41 40Z" fill="#ffffff"/>
    <path d="M49 48 Q84 42 81 16 Q72 20 66 25 Q76 22 78 27 Q68 25 62 30 Q72 29 73 34 Q62 31 56 35 Q64 35 64 40 Q55 37 49 40Z" fill="#ffffff"/>
  </g>
</svg>
