<svg xmlns="http://www.w3.org/2000/svg" viewBox="0 0 60 40">
  <g stroke="#3a3a3a" stroke-width="2" stroke-linejoin="round">
    <path d="M29 20 C20 9 10 7 6 9 C2 12 2 28 6 31 C11 33 21 31 29 20Z" fill="#ffffff"/>
    <path d="M31 20 C40 9 50 7 54 9 C58 12 58 28 54 31 C49 33 39 31 31 20Z" fill="#ffffff"/>
    <path d="M10 13 C7 16 7 24 10 27" fill="none" stroke="#d2d2d2"/>
    <path d="M50 13 C53 16 53 24 50 27" fill="none" stroke="#d2d2d2"/>
    <ellipse cx="30" cy="20" rx="6.5" ry="8" fill="#ffffff"/>
  </g>
  <path d="M27 14 C25 16 25 24 27 26" fill="none" stroke="#dadada" stroke-width="1.6"/>
</svg>
