<svg xmlns="http://www.w3.org/2000/svg" viewBox="0 0 120 120">
  <!-- Pompom – katt (brun/vit) -->
  <ellipse cx="60" cy="112" rx="32" ry="7" fill="#000" opacity="0.12"/>
  <!-- kropp -->
  <ellipse cx="60" cy="88" rx="28" ry="24" fill="#fdfbf7"/>
  <ellipse cx="60" cy="84" rx="16" ry="18" fill="#fff"/>
  <!-- ben -->
  <ellipse cx="48" cy="108" rx="8" ry="6" fill="#fdfbf7"/>
  <ellipse cx="72" cy="108" rx="8" ry="6" fill="#fdfbf7"/>
  <!-- svans -->
  <path d="M86 92 Q108 84 100 60" stroke="#8d6e5c" stroke-width="10" fill="none" stroke-linecap="round"/>
  <!-- öron -->
  <path d="M30 30 L34 56 L52 44 Z" fill="#8d6e5c"/>
  <path d="M90 30 L86 56 L68 44 Z" fill="#8d6e5c"/>
  <path d="M34 34 L36 50 L46 43 Z" fill="#ffc4d6"/>
  <path d="M86 34 L84 50 L74 43 Z" fill="#ffc4d6"/>
  <!-- huvud -->
  <circle cx="60" cy="48" r="32" fill="#fdfbf7"/>
  <!-- bruna fläckar -->
  <path d="M60 16 a32 32 0 0 1 28 18 q-16 6 -28 4 z" fill="#8d6e5c"/>
  <ellipse cx="40" cy="40" rx="12" ry="14" fill="#8d6e5c"/>
  <!-- ögon (blå) -->
  <circle cx="48" cy="48" r="8" fill="#fff"/>
  <circle cx="72" cy="48" r="8" fill="#fff"/>
  <circle cx="48" cy="49" r="5.5" fill="#3aa0e0"/>
  <circle cx="72" cy="49" r="5.5" fill="#3aa0e0"/>
  <circle cx="48" cy="49" r="2.6" fill="#1a2530"/>
  <circle cx="72" cy="49" r="2.6" fill="#1a2530"/>
  <circle cx="50" cy="47" r="1.5" fill="#fff"/>
  <circle cx="74" cy="47" r="1.5" fill="#fff"/>
  <!-- nos + mun -->
  <path d="M56 60 L64 60 L60 65 Z" fill="#e87a92"/>
  <path d="M60 65 Q54 70 50 66 M60 65 Q66 70 70 66" stroke="#6b5347" stroke-width="2" fill="none" stroke-linecap="round"/>
  <!-- morrhår -->
  <path d="M40 60 L24 57 M40 64 L24 66 M80 60 L96 57 M80 64 L96 66" stroke="#b9a896" stroke-width="1.5" stroke-linecap="round"/>
</svg>
